REM DIRINDEX 1\6,1\2\7,1\2\8,1\2\9,1\3\10,1\3\11,1\4\12,1\4\13,1\4\14,1\5\15,1\5\16,1\5\17
REM DIRNAME cjc041,folder01,folder02,folder03,folder04,folder05,folder06,folder07,folder08,folder09,folder10,folder11,folder12,folder13,folder14,folder15,folder16
TITLE ""
FILE "3Q_t2_0110-0125.mp3" MP3
  TRACK 01 AUDIO
    TITLE "7:cjc041_3742"
    INDEX 01 00:00:00
  TRACK 02 AUDIO
    TITLE "0:"
    INDEX 01 00:01:01
  TRACK 03 AUDIO
    TITLE "8:cjc041_3743"
    INDEX 01 00:01:54
  TRACK 04 AUDIO
    TITLE "0:"
    INDEX 01 00:03:57
  TRACK 05 AUDIO
    TITLE "9:cjc041_3744"
    INDEX 01 00:04:36
  TRACK 06 AUDIO
    TITLE "0:"
    INDEX 01 00:05:46
  TRACK 07 AUDIO
    TITLE "7:cjc041_3745"
    INDEX 01 00:07:29
  TRACK 08 AUDIO
    TITLE "0:"
    INDEX 01 00:08:60
  TRACK 09 AUDIO
    TITLE "8:cjc041_3746"
    INDEX 01 00:09:36
  TRACK 10 AUDIO
    TITLE "0:"
    INDEX 01 00:10:49
  TRACK 11 AUDIO
    TITLE "9:cjc041_3747"
    INDEX 01 00:11:25
  TRACK 12 AUDIO
    TITLE "0:"
    INDEX 01 00:12:56
  TRACK 13 AUDIO
    TITLE "7:cjc041_3748"
    INDEX 01 00:14:35
  TRACK 14 AUDIO
    TITLE "0:"
    INDEX 01 00:15:66
  TRACK 15 AUDIO
    TITLE "8:cjc041_3749"
    INDEX 01 00:16:42
  TRACK 16 AUDIO
    TITLE "0:"
    INDEX 01 00:17:55
  TRACK 17 AUDIO
    TITLE "9:cjc041_3750"
    INDEX 01 00:18:31
  TRACK 18 AUDIO
    TITLE "0:"
    INDEX 01 00:19:63
  TRACK 19 AUDIO
    TITLE "7:cjc041_3751"
    INDEX 01 00:21:43
  TRACK 20 AUDIO
    TITLE "0:"
    INDEX 01 00:22:46
  TRACK 21 AUDIO
    TITLE "8:cjc041_3752"
    INDEX 01 00:23:26
  TRACK 22 AUDIO
    TITLE "0:"
    INDEX 01 00:25:15
  TRACK 23 AUDIO
    TITLE "9:cjc041_3753"
    INDEX 01 00:25:68
  TRACK 24 AUDIO
    TITLE "0:"
    INDEX 01 00:27:00
  TRACK 25 AUDIO
    TITLE "7:cjc041_3754"
    INDEX 01 00:28:57
  TRACK 26 AUDIO
    TITLE "0:"
    INDEX 01 00:29:66
  TRACK 27 AUDIO
    TITLE "8:cjc041_3755"
    INDEX 01 00:30:44
  TRACK 28 AUDIO
    TITLE "0:"
    INDEX 01 00:32:43
  TRACK 29 AUDIO
    TITLE "9:cjc041_3756"
    INDEX 01 00:33:15
  TRACK 30 AUDIO
    TITLE "0:"
    INDEX 01 00:34:24
  TRACK 31 AUDIO
    TITLE "7:cjc041_3757"
    INDEX 01 00:36:05
  TRACK 32 AUDIO
    TITLE "0:"
    INDEX 01 00:37:08
  TRACK 33 AUDIO
    TITLE "8:cjc041_3758"
    INDEX 01 00:37:61
  TRACK 34 AUDIO
    TITLE "0:"
    INDEX 01 00:38:49
  TRACK 35 AUDIO
    TITLE "9:cjc041_3759"
    INDEX 01 00:39:25
  TRACK 36 AUDIO
    TITLE "0:"
    INDEX 01 00:40:32
  TRACK 37 AUDIO
    TITLE "7:cjc041_3760"
    INDEX 01 00:42:10
  TRACK 38 AUDIO
    TITLE "0:"
    INDEX 01 00:43:19
  TRACK 39 AUDIO
    TITLE "8:cjc041_3761"
    INDEX 01 00:43:72
  TRACK 40 AUDIO
    TITLE "0:"
    INDEX 01 00:44:71
  TRACK 41 AUDIO
    TITLE "9:cjc041_3762"
    INDEX 01 00:45:47
  TRACK 42 AUDIO
    TITLE "0:"
    INDEX 01 00:46:60
  TRACK 43 AUDIO
    TITLE "7:cjc041_3763"
    INDEX 01 00:48:42
  TRACK 44 AUDIO
    TITLE "0:"
    INDEX 01 00:49:45
  TRACK 45 AUDIO
    TITLE "8:cjc041_3764"
    INDEX 01 00:50:27
  TRACK 46 AUDIO
    TITLE "0:"
    INDEX 01 00:51:38
  TRACK 47 AUDIO
    TITLE "9:cjc041_3765"
    INDEX 01 00:52:16
  TRACK 48 AUDIO
    TITLE "0:"
    INDEX 01 00:53:21
  TRACK 49 AUDIO
    TITLE "7:cjc041_3766"
    INDEX 01 00:55:03
  TRACK 50 AUDIO
    TITLE "0:"
    INDEX 01 00:56:14
  TRACK 51 AUDIO
    TITLE "8:cjc041_3767"
    INDEX 01 00:56:69
  TRACK 52 AUDIO
    TITLE "0:"
    INDEX 01 00:59:45
  TRACK 53 AUDIO
    TITLE "9:cjc041_3768"
    INDEX 01 01:00:21
  TRACK 54 AUDIO
    TITLE "0:"
    INDEX 01 01:01:34
  TRACK 55 AUDIO
    TITLE "7:cjc041_3769"
    INDEX 01 01:03:18
  TRACK 56 AUDIO
    TITLE "0:"
    INDEX 01 01:04:29
  TRACK 57 AUDIO
    TITLE "8:cjc041_3770"
    INDEX 01 01:05:09
  TRACK 58 AUDIO
    TITLE "0:"
    INDEX 01 01:06:00
  TRACK 59 AUDIO
    TITLE "9:cjc041_3771"
    INDEX 01 01:06:53
  TRACK 60 AUDIO
    TITLE "0:"
    INDEX 01 01:07:66
  TRACK 61 AUDIO
    TITLE "7:cjc041_3772"
    INDEX 01 01:09:52
  TRACK 62 AUDIO
    TITLE "0:"
    INDEX 01 01:10:67
  TRACK 63 AUDIO
    TITLE "8:cjc041_3773"
    INDEX 01 01:11:45
  TRACK 64 AUDIO
    TITLE "0:"
    INDEX 01 01:13:69
  TRACK 65 AUDIO
    TITLE "9:cjc041_3774"
    INDEX 01 01:14:41
  TRACK 66 AUDIO
    TITLE "0:"
    INDEX 01 01:15:62
  TRACK 67 AUDIO
    TITLE "7:cjc041_3775"
    INDEX 01 01:17:39
  TRACK 68 AUDIO
    TITLE "0:"
    INDEX 01 01:18:49
  TRACK 69 AUDIO
    TITLE "8:cjc041_3776"
    INDEX 01 01:19:27
  TRACK 70 AUDIO
    TITLE "0:"
    INDEX 01 01:21:35
  TRACK 71 AUDIO
    TITLE "9:cjc041_3777"
    INDEX 01 01:22:09
  TRACK 72 AUDIO
    TITLE "0:"
    INDEX 01 01:23:22
  TRACK 73 AUDIO
    TITLE "7:cjc041_3778"
    INDEX 01 01:25:00
  TRACK 74 AUDIO
    TITLE "0:"
    INDEX 01 01:26:15
  TRACK 75 AUDIO
    TITLE "8:cjc041_3779"
    INDEX 01 01:26:68
  TRACK 76 AUDIO
    TITLE "0:"
    INDEX 01 01:27:67
  TRACK 77 AUDIO
    TITLE "9:cjc041_3780"
    INDEX 01 01:28:41
  TRACK 78 AUDIO
    TITLE "0:"
    INDEX 01 01:29:60
  TRACK 79 AUDIO
    TITLE "7:cjc041_3781"
    INDEX 01 01:31:36
  TRACK 80 AUDIO
    TITLE "0:"
    INDEX 01 01:32:39
  TRACK 81 AUDIO
    TITLE "8:cjc041_3782"
    INDEX 01 01:33:19
  TRACK 82 AUDIO
    TITLE "0:"
    INDEX 01 01:35:22
  TRACK 83 AUDIO
    TITLE "9:cjc041_3783"
    INDEX 01 01:35:73
  TRACK 84 AUDIO
    TITLE "0:"
    INDEX 01 01:37:03
  TRACK 85 AUDIO
    TITLE "7:cjc041_3784"
    INDEX 01 01:38:57
  TRACK 86 AUDIO
    TITLE "0:"
    INDEX 01 01:39:66
  TRACK 87 AUDIO
    TITLE "8:cjc041_3785"
    INDEX 01 01:40:44
  TRACK 88 AUDIO
    TITLE "0:"
    INDEX 01 01:41:46
  TRACK 89 AUDIO
    TITLE "9:cjc041_3786"
    INDEX 01 01:42:20
  TRACK 90 AUDIO
    TITLE "0:"
    INDEX 01 01:43:37
  TRACK 91 AUDIO
    TITLE "7:cjc041_3787"
    INDEX 01 01:45:12
  TRACK 92 AUDIO
    TITLE "0:"
    INDEX 01 01:46:33
  TRACK 93 AUDIO
    TITLE "8:cjc041_3788"
    INDEX 01 01:47:09
  TRACK 94 AUDIO
    TITLE "0:"
    INDEX 01 01:49:18
  TRACK 95 AUDIO
    TITLE "9:cjc041_3789"
    INDEX 01 01:49:63
  TRACK 96 AUDIO
    TITLE "0:"
    INDEX 01 01:51:11
